<svg width="512" height="512" viewBox="0 0 512 512" fill="none" xmlns="http://www.w3.org/2000/svg">
<g clip-path="url(#clip0_57_23)">
<path fill-rule="evenodd" clip-rule="evenodd" d="M304 112.003C304 120.847 296.82 128.007 287.992 128.007C279.148 128.007 271.992 120.847 271.992 112.003C271.992 103.159 279.148 96.003 287.992 96.003C296.82 96.003 304 103.159 304 112.003ZM207.984 112.003C207.984 120.847 200.828 128.007 191.984 128.007C183.156 128.007 176 120.847 176 112.003C176 103.159 183.156 96.003 191.984 96.003C200.828 96.003 207.984 103.159 207.984 112.003ZM433.93 337.937L433.914 337.921C431.008 340.827 426.992 342.64 422.562 342.64C413.679 342.64 406.484 335.445 406.484 326.562C406.484 321.812 408.601 317.578 411.906 314.632C414.414 311.796 415.992 308.101 415.992 304.015V207.995C415.992 199.171 408.836 191.995 399.992 191.995C391.164 191.995 383.992 199.171 383.992 207.995V304.015V349.077V351.999C383.992 372.921 373.906 391.413 358.39 403.093C358.335 403.148 358.296 403.273 358.226 403.327C354.445 406.249 351.984 410.843 351.984 416.007V464.015C351.984 490.507 330.492 511.999 304 511.999C277.484 511.999 255.992 490.507 255.992 464.015V463.21V428.007C255.992 421.374 250.633 416.007 243.992 416.007H235.992C229.367 416.007 223.992 421.374 223.992 428.007V463.21V464.015C223.992 490.507 202.492 511.999 176 511.999C149.484 511.999 127.992 490.507 127.992 464.015V416.007C127.992 410.843 125.554 406.249 121.75 403.327C121.68 403.272 121.648 403.147 121.586 403.093C106.07 391.413 95.992 372.921 95.992 351.999V349.077C90.961 350.874 85.617 351.999 79.992 351.999C53.492 351.999 32 330.507 32 304.015V207.995C32 182.612 51.805 162.038 76.758 160.331C77.805 160.116 78.875 160.011 79.992 160.011H95.992H127.992H205.992H239.992H304C321.664 160.011 336 145.675 336 128.007C336 121.206 333.828 114.945 330.227 109.78C309.829 82.046 277.055 63.999 239.993 63.999C195.735 63.999 157.509 89.687 139.337 126.948L139.298 126.928C136.681 132.276 131.228 136.006 124.868 136.006C115.962 136.006 108.743 128.776 108.743 119.877C108.743 115.932 110.212 112.361 112.571 109.565C124.383 86.889 142.04 67.745 163.532 54.147L146.134 24.01C141.72 16.35 144.337 6.57203 151.993 2.14303C159.641 -2.27097 169.431 0.346028 173.852 8.00603L192.414 40.154C207.305 34.916 223.289 32.009 239.992 32.009C256.672 32.009 272.64 35.005 287.531 40.228L306.133 8.00503C310.563 0.345029 320.336 -2.27197 328 2.14203C335.641 6.57203 338.258 16.349 333.852 24.009L316.391 54.236C331.75 63.943 345.258 76.302 355.985 90.924C363.469 101.42 367.985 114.154 367.985 128.006C367.985 163.346 339.337 191.994 304.001 191.994H143.992H127.992H79.992C71.164 191.994 63.984 199.17 63.984 207.994V304.014C63.984 312.834 71.164 320.014 79.992 320.014C88.836 320.014 95.992 312.834 95.992 304.014V240.002C95.992 231.174 103.148 223.998 111.992 223.998C120.836 223.998 127.992 231.174 127.992 240.002V351.998C127.992 363.982 134.648 374.295 144.39 379.787C153.757 385.404 159.992 395.576 159.992 407.256V464.014C159.992 472.842 167.156 479.998 176 479.998C184.828 479.998 191.984 472.842 191.984 464.014V424.006C191.984 401.904 209.906 384.006 231.992 384.006H247.992C270.094 384.006 287.992 401.904 287.992 424.006V464.014C287.992 472.842 295.156 479.998 304 479.998C312.82 479.998 320 472.842 320 464.014V407.256C320 395.576 326.227 385.404 335.609 379.787C345.328 374.295 351.984 363.982 351.984 351.998V304.014V223.998V207.994C351.984 181.498 373.476 160.01 399.992 160.01C426.508 160.01 448 181.499 448 207.995V304.015C448 317.272 442.617 329.257 433.93 337.937Z" fill="#3E3AEC"/>
</g>
<defs>
<clipPath id="clip0_57_23">
<rect width="512" height="512" fill="white"/>
</clipPath>
</defs>
</svg>
