<svg width="17" height="13" viewBox="0 0 17 13" fill="none" xmlns="http://www.w3.org/2000/svg">
<path d="M15.6002 3.66071L12.7516 5.25036C11.1634 6.1366 10.3693 6.57977 9.52836 6.7535C8.78404 6.90722 8.01636 6.90722 7.27204 6.7535C6.43111 6.57977 5.63702 6.1366 4.04884 5.25036L1.2002 3.66071M3.7602 12.5H13.0402C13.9363 12.5 14.3844 12.5 14.7266 12.3248C15.0276 12.1708 15.2724 11.9249 15.4258 11.6225C15.6002 11.2787 15.6002 10.8287 15.6002 9.92857V3.82143C15.6002 2.92135 15.6002 2.4713 15.4258 2.12752C15.2724 1.82511 15.0276 1.57925 14.7266 1.42517C14.3844 1.25 13.9363 1.25 13.0402 1.25H3.7602C2.86412 1.25 2.41607 1.25 2.07381 1.42517C1.77275 1.57925 1.52798 1.82511 1.37459 2.12752C1.2002 2.4713 1.2002 2.92134 1.2002 3.82143V9.92857C1.2002 10.8287 1.2002 11.2787 1.37459 11.6225C1.52798 11.9249 1.77275 12.1708 2.07381 12.3248C2.41607 12.5 2.86411 12.5 3.7602 12.5Z" stroke="#143AA0" stroke-linecap="round" stroke-linejoin="round"/>
</svg>
